inDegrees=no
num_controls=7
num_derivatives=13
num_iterations=193
num_multipliers=7
num_parameters=0
num_slacks=7
num_states=26
objective=5.915324
objective_accelerations=0.734750
objective_balance=0.128862
objective_effort=0.478903
objective_height=4.515594
objective_ligament=0.057215
solver_duration=2227.888501
status=Solve_Succeeded
success=true
DataType=double
version=3
OpenSimVersion=4.4-2022-07-23-0e9fedc
endheader
time	/jointset/ground_pelvis/pelvis_tilt/value	/jointset/ground_pelvis/pelvis_tx/value	/jointset/ground_pelvis/pelvis_ty/value	/jointset/hip_l/hip_flexion_l/value	/jointset/hip_l/hip_adduction_l/value	/jointset/hip_l/hip_rotation_l/value	/jointset/back/lumbar_extension/value	/jointset/patellofemoral_l/patellar_flexion_l/value	/jointset/knee_l/knee_flexion_l/value	/jointset/knee_l/knee_adduction_l/value	/jointset/knee_l/knee_rotation_l/value	/jointset/ankle_l/ankle_angle_l/value	/jointset/subtalar_l/subtalar_angle_l/value	/jointset/ground_pelvis/pelvis_tilt/speed	/jointset/ground_pelvis/pelvis_tx/speed	/jointset/ground_pelvis/pelvis_ty/speed	/jointset/hip_l/hip_flexion_l/speed	/jointset/hip_l/hip_adduction_l/speed	/jointset/hip_l/hip_rotation_l/speed	/jointset/back/lumbar_extension/speed	/jointset/patellofemoral_l/patellar_flexion_l/speed	/jointset/knee_l/knee_flexion_l/speed	/jointset/knee_l/knee_adduction_l/speed	/jointset/knee_l/knee_rotation_l/speed	/jointset/ankle_l/ankle_angle_l/speed	/jointset/subtalar_l/subtalar_angle_l/speed	/forceset/tau_hip_flexion_l	/forceset/tau_hip_adduction_l	/forceset/tau_hip_rotation_l	/forceset/tau_knee_flexion_l	/forceset/tau_ankle_angle_l	/forceset/tau_subtalar_angle_l	/forceset/tau_lumbar_extension	lambda_cid13_p0	lambda_cid13_p1	lambda_cid13_p2	lambda_cid13_p3	lambda_cid13_p4	lambda_cid13_p5	lambda_cid14_p0	/jointset/ground_pelvis/pelvis_tilt/accel	/jointset/ground_pelvis/pelvis_tx/accel	/jointset/ground_pelvis/pelvis_ty/accel	/jointset/hip_l/hip_flexion_l/accel	/jointset/hip_l/hip_adduction_l/accel	/jointset/hip_l/hip_rotation_l/accel	/jointset/back/lumbar_extension/accel	/jointset/patellofemoral_l/patellar_flexion_l/accel	/jointset/knee_l/knee_flexion_l/accel	/jointset/knee_l/knee_adduction_l/accel	/jointset/knee_l/knee_rotation_l/accel	/jointset/ankle_l/ankle_angle_l/accel	/jointset/subtalar_l/subtalar_angle_l/accel	gamma_cid13_p0	gamma_cid13_p1	gamma_cid13_p2	gamma_cid13_p3	gamma_cid13_p4	gamma_cid13_p5	gamma_cid14_p0
0.5	-0.4836955057790565	-0.0737433950656866	0.7497803353125033	1.337603601380752	-0.3097252034122895	-0.02856559063198909	-0.3366299725432568	0.7389528800700154	0.7389528800701448	-0.1723665831526614	0.174478790924452	0.05462977838065218	-0.04611848676590104	-0.8383470575606851	-0.2621850566796954	-0.549075446977782	2.574829924761519	-0.01840231750158839	0.6698992772696623	-0.6173362921484414	1.909510252567077	1.90951025256772	-0.008835863889792645	0.0001170090768587199	0.2788547279246225	0.01402637768233111	-0.2663660390784515	0.02063681993572859	-0.01997180454065094	-0.1914150814399645	0.1182148162726241	0.04553003767901496	0.2332468842144585	-0.3831161934696556	-22.25043795779504	6.050567636649461	-4.583143988041294	-605.720107715686	-57.24302651993332	-25.3709760854982	0.7099687557886717	0.7530582568338133	-0.3461436535675584	-1.664544993628778	0.6769758832275262	-0.3403806373318076	1.91493737997697	-1.206008540533664	-1.206008540533669	0.03830520465580391	-0.004649483156895529	-0.2069498319411302	0.6596929066978828	-3.642683494757361e-07	-9.214437154573994e-07	1.792738139999456e-06	1.200239193187551e-07	-4.588164668621061e-07	9.015091324171136e-08	-3.909278370726382e-07
0.51	-0.4920416414370844	-0.07632730795081046	0.7442734679825197	1.36326405022665	-0.3098770717704762	-0.02188362330477014	-0.3427077824077012	0.7579845538601911	0.7579845538603301	-0.1724563287250127	0.1744802918686353	0.05740684547664533	-0.04594710745426618	-0.8307711094699528	-0.2545783465982315	-0.5521832316939169	2.556921352071952	-0.01199423150351569	0.6664190671459254	-0.5981641596516977	1.896561578761883	1.896561578762334	-0.009119814234297252	0.000180404502346575	0.2764971564384363	0.02022473305571929	-0.2754153473585358	0.02117750709235191	-0.02000299133926789	-0.1924910663805328	0.1173808588368967	0.04590143722891087	0.2401147860122202	-0.9334981643190017	-22.20794775566308	5.92109223995207	-4.441839450446793	-610.8888252060397	-56.74554566249373	-24.23367465190653	0.7977095758598604	0.7673740154817217	-0.2759634928279944	-1.90483983571179	0.6191751968027117	-0.3634474904285458	1.927579348836916	-1.378661447163854	-1.378661447192381	-0.06281668448623834	0.01104635772983501	-0.2593951081250747	0.596141239442957	-3.260624072193823e-07	-8.630896892699161e-07	1.633633390353243e-06	9.824923858066904e-08	-4.092974275504544e-07	1.19937248749153e-07	-3.610592605538911e-07
0.52	-0.5003087572661872	-0.07883457440878404	0.7387389492829368	1.388735248059826	-0.3099655692209402	-0.01523877933687928	-0.3485920253143181	0.7768788679829863	0.7768788679831357	-0.172549128106928	0.1744822692275118	0.06015848999754511	-0.04571449771154082	-0.8225430917734299	-0.2468557712496362	-0.5546057208976628	2.536979722218739	-0.005728135957231883	0.6624746054008368	-0.5786229005823829	1.882038319090625	1.882038319090886	-0.009446625798094993	0.0002122920209622255	0.2737702129055366	0.02627246390045792	-0.2844646556386162	0.02171819424902299	-0.02003417813823995	-0.1935670513210461	0.1165469014011906	0.04627283677886156	0.2469826878099673	-1.487461953363215	-22.16843999879238	5.796216408630977	-4.317325639880102	-616.1353583472396	-56.32864439302733	-23.09430397296391	0.8403826769470236	0.7762313102600079	-0.2090845510896913	-2.071156426358416	0.6485777928697662	-0.4332309616021253	1.988762694491494	-1.520925713746246	-1.520925713746268	0.02973296079728024	-0.01095106453142832	-0.2808242412839236	0.6295680009680216	-3.011236036288965e-07	-7.86080977787852e-07	1.544163370193103e-06	8.895520412940557e-08	-3.703892833495443e-07	1.52025734725274e-07	-3.393637761040223e-07
0.53	-0.5084904807998953	-0.08126412157558484	0.7331836331985745	1.413997253928417	-0.3099919447984453	-0.00863580523103159	-0.3542790988712197	0.7956203948071023	0.7956203948072207	-0.1726448781831561	0.1744844364342436	0.06288118853083637	-0.04542196493060769	-0.8137003457567544	-0.2390421222152956	-0.5563408784660429	2.515100390293999	0.000430089641722049	0.6580319935518282	-0.558747105328012	1.866019812594167	1.866019812594488	-0.009690143195043075	0.0002259939484553031	0.2707150662556233	0.03221015568945467	-0.293299177354716	0.02204288895087462	-0.0200508987828219	-0.1947475306194411	0.1158206139057922	0.04645854453568261	0.2536221688271352	-2.008060729134537	-22.0544420566749	5.659822209900544	-4.16472203743245	-621.3011249115871	-55.81220493064743	-21.95402377628509	0.9213731986651882	0.78567949887897	-0.1383087238437936	-2.294526376641832	0.5958895287095224	-0.4633049422155466	1.99369376240306	-1.679332494820236	-1.679332494811127	-0.04948219272955486	0.007926271950164661	-0.3260245344996686	0.5722225532674877	-2.765890413289728e-07	-7.09484891473468e-07	1.452212370594276e-06	8.030710088744449e-08	-3.337283826670268e-07	1.79609319566252e-07	-3.17178011097457e-07
0.54	-0.5165807463465187	-0.08361518269227065	0.727614450065702	1.439030825517523	-0.3099574492028993	-0.002079962972830528	-0.3597660733112832	0.8141943326907978	0.8141943326909163	-0.1727426810539051	0.174486819750362	0.0655717026660947	-0.04507078467470433	-0.8042514943545575	-0.2311585612266375	-0.557379130599685	2.491292866324867	0.006446098652746257	0.6530482358761969	-0.5386030772139003	1.848520531008719	1.848520531009101	-0.0098571847035427	0.00025551389836317	0.2673333332995182	0.03800195889453031	-0.3021336990708978	0.02236758365266239	-0.02006761942716568	-0.1959280099178806	0.1150943264103756	0.04664425229243309	0.2602616498442322	-2.533958538421509	-21.94270644717292	5.52743359000446	-4.020379717500648	-626.5664510221146	-55.37097502866208	-20.81442151168609	0.9616037540516177	0.7902137011234591	-0.06970346414205152	-2.456794835237206	0.6201344752839022	-0.5414601269266678	2.042409266439958	-1.817080731544105	-1.817080731544195	0.04502813848706155	-0.007787460048552516	-0.346141502522356	0.6003902841838473	-2.525017247122242e-07	-6.333453266211979e-07	1.357516457573923e-06	7.237364494088183e-08	-2.995537939623053e-07	2.022087584704761e-07	-2.944498080281638e-07
0.55	-0.5245736392012698	-0.08588713724087017	0.7220383638236253	1.46381700427208	-0.3098634311404618	0.004423462803832512	-0.3650503569216287	0.8325860886324626	0.8325860886327889	-0.1728415776700014	0.1744894604536926	0.06822688352890789	-0.0446623296847484	-0.7942327792451118	-0.2232276138097808	-0.5577205140619689	2.465634575078537	0.01232407290383481	0.6475615175133842	-0.5182262821058311	1.829592324062329	1.829592324062561	-0.009925519784202152	0.0002735863614889162	0.2636517156585203	0.04365392052947543	-0.3107028213346931	0.02250003871843884	-0.02006161573464544	-0.1971743558125469	0.1144632990543688	0.04663960608870884	0.2666329175448189	-3.02574669328327	-21.75413685708682	5.382639726031651	-3.853395155033505	-631.6763451024716	-54.82098359425884	-19.67728832132244	1.036117619352627	0.7952590736773338	0.001228593270388952	-2.666631396192593	0.5665024356412575	-0.5638384994825608	2.039419046387264	-1.966384255159014	-1.966384255181248	-0.03333331242821354	0.006459990883464422	-0.3868381293076915	0.5422723377525894	-2.292249478520412e-07	-5.628203437330016e-07	1.262831415497606e-06	6.525012585758286e-08	-2.678349569411303e-07	2.202205245116431e-07	-2.72068019783532e-07
0.5600000000000001	-0.5324635224589449	-0.08807963755295901	0.716462380623034	1.488337343088784	-0.3097116586283887	0.01086970923516433	-0.3701300516982189	0.8507814237888632	0.8507814237894199	-0.172941271433125	0.1744922529599215	0.07084371496842742	-0.04419842043152257	-0.7836495749371885	-0.2152677139245034	-0.5573585223026131	2.438124878757738	0.01799698857971973	0.6416123668096103	-0.497685310461877	1.809236373957031	1.809236373957114	-0.01001661410828602	0.0002858744802254182	0.2596634486407497	0.04909281154853204	-0.3192719435985558	0.02263249378421978	-0.02005561204223111	-0.1984207017071994	0.1138322716983729	0.04663495988499176	0.273004185245329	-3.524073787010807	-21.56715859758845	5.241225859916579	-3.688841462965184	-636.9011333955	-54.33990009560272	-18.54476674609549	1.074501593747423	0.7960041948075741	0.07097158018588423	-2.827075850131344	0.5791227602432275	-0.6339465951188621	2.075244573617303	-2.102629363325728	-2.102629363325958	0.04047628980226722	-0.008944328926500978	-0.407471377876937	0.5577761610062072	-2.069208186997369e-07	-4.990328592016936e-07	1.168159418554132e-06	5.909853101020025e-08	-2.39063021940211e-07	2.327270831171419e-07	-2.501019293284939e-07
0.5700000000000001	-0.5402449165261656	-0.09019248327616375	0.7108935177681389	1.512573683903914	-0.3095040226365813	0.0172540665698009	-0.375003588407967	0.8687662813759639	0.8687662813765102	-0.1730415325860063	0.1744950993491096	0.07341924564760891	-0.04368101249992198	-0.7725420994081319	-0.2073042811054578	-0.5562968828543808	2.408851741725885	0.02349550552688066	0.6351778894193186	-0.4770114063869295	1.787510014738301	1.78751001473806	-0.0100277852334484	0.0002867710390794341	0.2553968737895835	0.054352357588932	-0.3275603062133183	0.02256806311267444	-0.02001925465750429	-0.199621095410062	0.1131297645912413	0.04652920485191755	0.2790849963733804	-4.035232116433884	-21.33405773934137	5.092498692475835	-3.460589203882862	-641.8935379228172	-53.8084116643997	-17.41913711720914	1.141914643831457	0.7960963908647799	0.141290442987065	-3.02119579473748	0.5299097243191387	-0.6605886221619752	2.065057090532633	-2.241360974765611	-2.24136097481394	-0.02079014380037072	0.004865376367826401	-0.4431183452477732	0.504524022493582	-1.863142309458943e-07	-4.318581657985597e-07	1.081328004410904e-06	5.559832601053802e-08	-2.126380454729843e-07	2.42597650536438e-07	-2.285337200281597e-07
0.58	-0.5479126270158367	-0.09222577795809563	0.7053387773708949	1.5365085407157	-0.3092424627628279	0.02357160106828229	-0.379670067323751	0.8865271310161454	0.8865271310167061	-0.1731416807161698	0.1744980064494945	0.07595073701697477	-0.04311211306853016	-0.7609128594251927	-0.1993575056699272	-0.5545340307724195	2.377828078093029	0.02878176496871606	0.6282477995819136	-0.4562737516680104	1.764434784574804	1.764434784574241	-0.009994009563606177	0.0002980167209890992	0.2508555866779598	0.05939111150679911	-0.3358486688281763	0.02250363244109006	-0.01998289727265639	-0.200821489112947	0.1124272574841051	0.04642344981880116	0.285165807501338	-4.55343164534623	-21.10216422693314	4.946752048735694	-3.232410985252643	-647.0059375097582	-53.33924343364783	-16.30341345937808	1.178854484524237	0.7926727181045812	0.2112141069317328	-3.177181170332217	0.5366712591781941	-0.733069084541492	2.087994702411941	-2.372403552279176	-2.372403552279141	0.04946564880326697	-0.006874504315467908	-0.462413829968442	0.5136177364996998	-1.67918394780746e-07	-3.602722236321185e-07	1.004707581821485e-06	5.555109383581382e-08	-1.892695731426599e-07	2.490352992016098e-07	-2.074836815339516e-07
